Ripper                           : Rahul
Source                           : Drc
Complete name                    : Tango Charlie ( 2005 )
Format                           : AVI
Format/Info                      : Audio Video Interleave
File size                        : 1.37 GiB
Duration                         : 2h 23mn
Overall bit rate                 : 1 361 Kbps
Writing application              : VirtualDubMod 1.5.10.3 | 

Video
ID                               : 0
Format                           : MPEG-4 Visual
Format profile                   : Advanced Simple@L5
Format settings, BVOP            : 2
Format settings, QPel            : Yes
Format settings, GMC             : No warppoints
Format settings, Matrix          : Default (MPEG)
Codec ID                         : XVID
Codec ID/Hint                    : XviD
Duration                         : 2h 23mn
Bit rate                         : 968 Kbps
Width                            : 704 pixels
Height                           : 304 pixels
Display aspect ratio             : 2.35:1
Frame rate                       : 23.976 fps
Color space                      : YUV
Chroma subsampling               : 4:2:0
Bit depth                        : 8 bits
Scan type                        : Interlaced
Scan order                       : Bottom Field First
Compression mode                 : Lossy
Bits/(Pixel*Frame)               : 0.189
Stream size                      : 995 MiB (71%)
Writing library                  : XviD 1.2.1 (UTC 2008-12-04)

Audio
ID                               : 1
Format                           : AC-3
Format/Info                      : Audio Coding 3
Mode extension                   : CM (complete main)
Codec ID                         : 2000
Duration                         : 2h 23mn
Bit rate mode                    : Constant
Bit rate                         : 384 Kbps
Channel(s)                       : 6 channels
Channel positions                : Front: L C R, Side: L R, LFE
Sampling rate                    : 48.0 KHz
Bit depth                        : 16 bits
Compression mode                 : Lossy
Stream size                      : 395 MiB (28%)
Alignment                        : Split accross interleaves
Interleave, duration             : 42 ms (1.00 video frame)
Interleave, preload duration     : 500 ms

CREDITS TO PUNJABI BOY.

screens: 
http://i887.photobucket.com/albums/ac76/desiess/Punjabi/1-37.png 
http://i887.photobucket.com/albums/ac76/desiess/Punjabi/2-37.png 
http://i887.photobucket.com/albums/ac76/desiess/Punjabi/3-38.png 
http://i887.photobucket.com/albums/ac76/desiess/Punjabi/4-36.png 
http://i887.photobucket.com/albums/ac76/desiess/Punjabi/6-36.png 
http://i887.photobucket.com/albums/ac76/desiess/Punjabi/7-35.png


 ~ Seed 4 others,Others would seed 4 u ~
         Be a Gentleman!!

    ______            ______   _______    
   (  __  \\ |\\     /|(  __  \\ (  ____ \\   
   | (  \\  )| )   ( || (  \\  )| (    \\/   
   | |   ) || |   | || |   ) || (__       
   | |   | || |   | || |   | ||  __)      
   | |   ) || |   | || |   ) || (         
 _ | (__/  )| (___) || (__/  )| (____/\\ _ 
(_)(______/ (_______)(______/ (_______/(_)


A simple THANKS goes a long way... :-)
Any comments would b appreciated.